Coordinates
version=1
nRows=5
nColumns=63
inDegrees=yes

Units are S.I. units (second, meters, Newtons, ...)
If the header above contains a line with 'inDegrees', this indicates whether rotational values are in degrees (yes) or radians (no).

endheader
time	pelvis_tilt	pelvis_list	pelvis_rotation	pelvis_tx	pelvis_ty	pelvis_tz	hip_flexion_r	hip_adduction_r	hip_rotation_r	knee_angle_r	knee_angle_r_beta	ankle_angle_r	subtalar_angle_r	mtp_angle_r	hip_flexion_l	hip_adduction_l	hip_rotation_l	knee_angle_l	knee_angle_l_beta	ankle_angle_l	subtalar_angle_l	mtp_angle_l	L5_S1_Flex_Ext	L5_S1_Lat_Bending	L5_S1_axial_rotation	L4_L5_Flex_Ext	L4_L5_Lat_Bending	L4_L5_axial_rotation	L3_L4_Flex_Ext	L3_L4_Lat_Bending	L3_L4_axial_rotation	L2_L3_Flex_Ext	L2_L3_Lat_Bending	L2_L3_axial_rotation	L1_L2_Flex_Ext	L1_L2_Lat_Bending	L1_L2_axial_rotation	L1_T12_Flex_Ext	L1_T12_Lat_Bending	L1_T12_axial_rotation	Abs_r3	Abs_r2	Abs_r1	Abs_t1	Abs_t2	neck_flexion	neck_bending	neck_rotation	arm_flex_r	arm_add_r	arm_rot_r	elbow_flex_r	pro_sup_r	wrist_flex_r	wrist_dev_r	arm_flex_l	arm_add_l	arm_rot_l	elbow_flex_l	pro_sup_l	wrist_flex_l	wrist_dev_l
      0.00000000	     -0.67528197	     -5.25859138	     89.10545792	      0.32392099	      0.80684183	      0.57182239	     -6.87365124	      1.67556202	      5.21881287	      1.25226658	      0.02185617	     18.65347643	     -5.63798368	      0.00000000	     -1.59405614	     -3.92914162	      5.94810643	     11.22310515	      0.19588014	     24.83699201	     -3.31538393	      0.00000000	      0.15232483	     -0.12268374	      1.53354687	      0.28288245	     -0.16316938	      1.62939355	      0.25025447	     -0.29829325	      1.62939355	      0.17409205	     -0.29829325	      1.34185351	      0.14144884	     -0.25017669	      1.24600683	      0.08703841	     -0.19003712	      1.15016015	      1.08804105	     -1.38782302	      8.52912762	      0.00000000	      0.00000000	     25.64232617	     -1.98752587	    -15.69412728	     25.14624812	    -14.21602194	     55.29124147	     59.91057404	     89.07583875	      1.52215707	     -9.34928226	     20.25630875	     -8.49333107	     44.52664258	     60.76611035	     70.86095086	    -14.98029745	      7.02620554
      0.01694915	     -0.60734169	     -5.40443317	     88.08240894	      0.32444678	      0.80649462	      0.57237615	     -6.41006538	      1.61011731	      8.82840426	      1.56358042	      0.02728963	     18.05988014	     -9.52644078	      0.00000000	     -1.61679654	     -3.76337093	      6.63739514	     11.36724958	      0.19839593	     23.63557609	     -5.28509652	      0.00000000	      0.15889671	     -0.10557210	      1.79531109	      0.29508709	     -0.14041089	      1.90751803	      0.26105141	     -0.25668800	      1.90751803	      0.18160305	     -0.25668800	      1.57089720	      0.14755149	     -0.21528262	      1.45869026	      0.09079358	     -0.16353118	      1.34648331	      1.13498334	     -1.19425270	      9.98498167	      0.00000000	      0.00000000	     25.98899284	     -2.39636796	    -16.29695055	     24.29895892	    -14.39429585	     52.83781412	     60.84243439	     88.97927718	      2.84250635	     -7.36914854	     21.62710431	     -8.18379950	     44.47283754	     60.13123317	     84.01749688	    -14.43108142	      7.49623244
      0.03389831	     -0.56504906	     -5.43557754	     87.89573847	      0.32397652	      0.80634562	      0.57273541	     -6.25115860	      1.58007245	      8.89459407	      1.59722711	      0.02787687	     18.10401317	     -9.51887302	      0.00000000	     -1.62938797	     -3.72709179	      6.71333514	     11.41006976	      0.19914329	     23.43934773	     -5.19519189	      0.00000000	      0.16133454	     -0.08962482	      1.78404662	      0.29961437	     -0.11920101	      1.89554954	      0.26505651	     -0.21791378	      1.89554954	      0.18438924	     -0.21791378	      1.56104079	      0.14981525	     -0.18276293	      1.44953788	      0.09218656	     -0.13882884	      1.33803497	      1.15239647	     -1.01385387	      9.92233210	      0.00000000	      0.00000000	     25.96394904	     -2.38820458	    -16.27467112	     24.38530180	    -14.32569928	     52.62195686	     60.90580953	     88.84103775	      2.79953534	     -7.34398565	     22.15782765	     -8.24673176	     44.29424495	     60.20464646	     84.12781640	    -14.47597817	      7.41110536
      0.05084746	     -0.57537464	     -5.49461608	     87.09335443	      0.32517434	      0.80635297	      0.57346786	     -5.73314770	      1.52037913	      9.76530559	      2.23908098	      0.03907934	     18.55098617	     -9.20807880	      0.00000000	     -1.59438490	     -3.68398445	      6.20844187	     11.53920344	      0.20139709	     23.02052420	     -5.46737900	      0.00000000	      0.16288191	     -0.08866498	      2.07875267	      0.30248800	     -0.11792442	      2.20867471	      0.26759869	     -0.21558003	      2.20867471	      0.18615774	     -0.21558003	      1.81890859	      0.15125214	     -0.18080563	      1.68898654	      0.09307072	     -0.13734205	      1.55906450	      1.16344920	     -1.00299598	     11.56139872	      0.00000000	      0.00000000	     26.19579724	     -2.53137689	    -16.29015009	     22.73774888	    -14.21135349	     48.73758187	     61.86280691	     88.32880925	      4.12635778	     -4.45866765	     23.47094253	     -8.10618141	     46.13269401	     59.34971327	     87.42829503	    -14.61507208	      5.54028716
      0.06779661	     -0.62630964	     -5.42945159	     87.05468745	      0.32532546	      0.80654578	      0.57393940	     -5.58403404	      1.44820060	      8.59586864	      2.49892558	      0.04361448	     19.17091708	     -7.25763553	      0.00000000	     -1.59916228	     -3.70289429	      5.40729751	     11.57317072	      0.20198993	     23.32482527	     -4.23983925	      0.00000000	      0.15581084	     -0.08937287	      2.09512614	      0.28935632	     -0.11886592	      2.22607152	      0.25598164	     -0.21730120	      2.22607152	      0.17807621	     -0.21730120	      1.83323537	      0.14468595	     -0.18224916	      1.70228999	      0.08903032	     -0.13843858	      1.57134461	      1.11294128	     -1.01100378	     11.65246306	      0.00000000	      0.00000000	     26.13534289	     -2.32625865	    -15.68467476	     22.25969223	    -13.91448320	     47.68607693	     61.84084419	     87.54366358	      3.40841303	     -4.17950402	     23.82507417	     -8.25319093	     46.61773960	     59.31560870	     87.60265848	    -14.51391626	      4.96178510
